<?xml version="1.0" encoding="UTF-8" standalone="no"?>
<!-- Created with Inkscape (http://www.inkscape.org/) -->

<svg
   xmlns:dc="http://purl.org/dc/elements/1.1/"
   xmlns:cc="http://creativecommons.org/ns#"
   xmlns:rdf="http://www.w3.org/1999/02/22-rdf-syntax-ns#"
   xmlns:svg="http://www.w3.org/2000/svg"
   xmlns="http://www.w3.org/2000/svg"
   xmlns:sodipodi="http://sodipodi.sourceforge.net/DTD/sodipodi-0.dtd"
   xmlns:inkscape="http://www.inkscape.org/namespaces/inkscape"
   width="48px"
   height="48px"
   viewBox="0 0 48 48"
   version="1.1"
   id="SVGRoot"
   inkscape:version="0.92.1 r15371"
   sodipodi:docname="logo.svg"
   inkscape:export-filename="C:\Users\flavi\Workspace\hotcities\assets\logo-light.png"
   inkscape:export-xdpi="1024"
   inkscape:export-ydpi="1024">
  <sodipodi:namedview
     id="base"
     pagecolor="#ffffff"
     bordercolor="#666666"
     borderopacity="1.0"
     inkscape:pageopacity="0.0"
     inkscape:pageshadow="2"
     inkscape:zoom="15.084945"
     inkscape:cx="21.001196"
     inkscape:cy="37.855292"
     inkscape:document-units="px"
     inkscape:current-layer="layer1"
     showgrid="false"
     inkscape:window-width="1366"
     inkscape:window-height="705"
     inkscape:window-x="-8"
     inkscape:window-y="-8"
     inkscape:window-maximized="1"
     inkscape:grid-bbox="true" />
  <defs
     id="defs5972" />
  <metadata
     id="metadata5975">
    <rdf:RDF>
      <cc:Work
         rdf:about="">
        <dc:format>image/svg+xml</dc:format>
        <dc:type
           rdf:resource="http://purl.org/dc/dcmitype/StillImage" />
        <dc:title />
      </cc:Work>
    </rdf:RDF>
  </metadata>
  <g
     id="layer1"
     inkscape:groupmode="layer"
     inkscape:label="Livello 1">
    <circle
       id="path3712"
       cx="24"
       cy="24"
       style="opacity:0.98999999;fill:#fc900c;fill-opacity:1;stroke:#191a1a;stroke-width:0;stroke-miterlimit:4;stroke-dasharray:none;stroke-opacity:1"
       r="23.999998"
       inkscape:export-xdpi="1024"
       inkscape:export-ydpi="1024" />
    <text
       xml:space="preserve"
       style="font-style:normal;font-variant:normal;font-weight:normal;font-stretch:normal;font-size:5.33333349px;line-height:1.25;font-family:Quicksand;-inkscape-font-specification:Quicksand;letter-spacing:0px;word-spacing:0px;text-anchor:middle;fill:#000000;fill-opacity:1;stroke:none"
       x="50%"
       y="50%"
       id="text10"
       dy="2.5"><tspan
         sodipodi:role="line"
         x="24"
         y="24"
         style="font-size:6.66666651px;fill:#ffffff"
         id="tspan20">HOT CITIES</tspan></text>
    <flowRoot
       xml:space="preserve"
       id="flowRoot20"
       style="fill:black;fill-opacity:1;stroke:none;font-family:Quicksand;font-style:normal;font-weight:normal;font-size:5.33333333px;line-height:1.25;letter-spacing:0px;word-spacing:0px;-inkscape-font-specification:Quicksand;font-stretch:normal;font-variant:normal"><flowRegion
         id="flowRegion22"><rect
           id="rect24"
           width="0.5625"
           height="6.1875"
           x="9.375"
           y="20.8125" /></flowRegion><flowPara
         id="flowPara26" /></flowRoot>    <circle
       style="opacity:0.98999999;fill:#ffffff;fill-opacity:1;stroke:#191a1a;stroke-width:0;stroke-miterlimit:4;stroke-dasharray:none;stroke-opacity:1"
       id="path18"
       cx="12.1875"
       cy="24.09375"
       r="2.5" />
    <path
       style="opacity:0.98999999;fill:#fc900c;fill-opacity:0;stroke:#191a1a;stroke-width:0;stroke-miterlimit:4;stroke-dasharray:none;stroke-opacity:1"
       d="M 22.287246,47.910661 C 15.33284,47.416559 8.9269363,43.890305 4.7292024,38.245495 0.31570198,32.310538 -1.0918847,24.539818 0.95325139,17.399988 2.4490162,12.178082 5.7131242,7.5804336 10.166184,4.4231427 13.156357,2.3030613 16.861362,0.81240007 20.431091,0.29318809 c 2.445976,-0.35576364 5.298251,-0.32180546 7.689786,0.0915519 4.048135,0.69968721 7.959855,2.49995861 11.122798,5.11899031 2.578506,2.1350973 4.734973,4.8496337 6.204139,7.8096997 1.23958,2.497498 1.894956,4.640945 2.341082,7.656641 0.168777,1.140891 0.169162,4.867661 5.97e-4,6.06565 -0.440214,3.129136 -1.376585,5.97932 -2.809447,8.551572 -4.572416,8.208387 -13.3697,12.985763 -22.6928,12.323368 z M 13.08454,26.441401 c 0.706155,-0.264207 1.238553,-0.817282 1.492279,-1.550237 0.167658,-0.484323 0.150015,-1.2267 -0.04086,-1.719201 -0.194707,-0.502394 -0.735123,-1.086554 -1.242598,-1.34318 -0.354552,-0.179294 -0.443584,-0.195382 -1.082388,-0.195582 -0.615448,-1.99e-4 -0.739628,0.02021 -1.072271,0.176144 -0.527052,0.247073 -0.942816,0.654245 -1.1982094,1.17345 -0.2018099,0.410272 -0.2154069,0.482095 -0.2148858,1.135077 5.303e-4,0.651893 0.014044,0.722951 0.2085788,1.095917 0.2165594,0.415192 0.7137464,0.934644 1.0718074,1.119804 0.625458,0.323437 1.395478,0.363376 2.078545,0.107808 z M 5.964707,25.428158 5.982963,24.384071 h 1.189876 1.1898758 l 0.018257,1.044087 c 0.017971,1.027766 0.020601,1.04442 0.1682644,1.065383 l 0.1500085,0.02129 -0.017426,-2.341489 c -0.017054,-2.291487 -0.020257,-2.34149 -0.1500085,-2.34149 -0.1263962,0 -0.1334323,0.05027 -0.1507973,1.077233 l -0.018215,1.077233 H 7.1728391 5.9828807 L 5.9646657,22.90909 c -0.017365,-1.026967 -0.024401,-1.077233 -0.1507974,-1.077233 -0.1297512,0 -0.1329547,0.05 -0.1500086,2.34149 l -0.017426,2.341489 0.1500086,-0.02129 c 0.1476637,-0.02096 0.150294,-0.03762 0.1682648,-1.065383 z m 11.045292,0.972374 c 0.02213,-0.05767 0.04024,-1.026205 0.04024,-2.152295 v -2.047436 l 0.745776,-0.01874 0.745777,-0.01874 v -0.165728 -0.165728 l -1.664808,-0.01769 c -1.422005,-0.01511 -1.67698,-0.003 -1.748263,0.08286 -0.06662,0.08028 -0.06681,0.120611 -9.28e-4,0.199993 0.0641,0.07724 0.243518,0.09944 0.803612,0.09944 h 0.721086 v 2.110272 c 0,1.16065 0.01989,2.130159 0.0442,2.154466 0.08194,0.08194 0.272769,0.045 0.313315,-0.06067 z m 7.759067,0.01 c 0.418451,-0.125935 0.832743,-0.405471 0.832743,-0.561876 0,-0.186848 -0.187538,-0.222125 -0.395108,-0.07432 -0.992246,0.706542 -2.473918,0.335238 -3.034616,-0.760469 -0.632588,-1.236194 0.223015,-2.737543 1.632957,-2.865392 0.471362,-0.04274 0.985779,0.07136 1.308217,0.290172 0.277814,0.188529 0.446887,0.180612 0.475919,-0.02229 0.02674,-0.186907 -0.392762,-0.438792 -0.982354,-0.589838 -0.986228,-0.25266 -2.067117,0.155534 -2.618714,0.988947 -1.054511,1.59327 0.07557,3.681949 1.9956,3.688375 0.258542,8.69e-4 0.611952,-0.04112 0.785356,-0.09331 z m 2.52317,-2.258455 c 0,-2.275999 -0.0025,-2.320194 -0.132582,-2.320194 -0.129751,0 -0.132955,0.05 -0.150009,2.34149 l -0.01743,2.341489 0.150009,-0.02129 0.150008,-0.0213 z m 3.199472,0.181414 0.01749,-2.137006 0.711713,-10e-4 c 0.758982,-0.0011 0.904543,-0.04122 0.866513,-0.238948 -0.02259,-0.117474 -0.119618,-0.125656 -1.687903,-0.142331 -1.421222,-0.01511 -1.676105,-0.003 -1.747386,0.08286 -0.06662,0.08028 -0.06681,0.12061 -9.28e-4,0.199993 0.0641,0.07724 0.243518,0.09944 0.803612,0.09944 l 0.721086,-1e-6 v 2.110272 c 0,1.16065 0.02092,2.13119 0.04649,2.156757 0.02557,0.02557 0.09269,0.0376 0.149156,0.02673 0.08973,-0.01726 0.104873,-0.289064 0.12016,-2.156757 z M 33.673631,24.1669 c 0.01585,-2.095332 0.0074,-2.309213 -0.09245,-2.347538 -0.265046,-0.101707 -0.289586,0.09658 -0.289586,2.339964 0,1.175005 0.01871,2.185137 0.04158,2.244737 0.02453,0.06392 0.0993,0.100128 0.182301,0.08829 0.139962,-0.01997 0.140812,-0.03247 0.158152,-2.325449 z m 4.357789,2.172789 c 0,-0.126923 -0.05023,-0.133356 -1.17667,-0.150685 l -1.176669,-0.0181 V 25.277502 24.3841 h 0.986252 c 0.792042,0 1.002364,-0.01941 1.068076,-0.09859 0.045,-0.05423 0.06451,-0.143719 0.04334,-0.198874 -0.03206,-0.08356 -0.210182,-0.100281 -1.068077,-0.100281 H 35.678081 V 23.09292 22.199518 l 1.176669,-0.0181 1.17667,-0.0181 V 21.99759 21.831862 l -1.284128,-0.01803 c -0.891099,-0.01251 -1.312108,0.0052 -1.375544,0.05783 -0.07429,0.06166 -0.09141,0.483094 -0.09141,2.249941 0,1.19574 0.01834,2.221866 0.04076,2.280279 0.03584,0.09339 0.201823,0.104045 1.375544,0.08829 1.28462,-0.01725 1.334788,-0.0229 1.334788,-0.150503 z m 3.792422,-0.06197 c 0.768634,-0.4188 0.962732,-1.185025 0.445276,-1.757786 -0.25806,-0.285642 -0.651476,-0.462429 -1.473776,-0.662264 -0.302853,-0.0736 -0.654179,-0.182949 -0.780725,-0.242998 -0.943844,-0.447883 -0.437838,-1.483839 0.737024,-1.508924 0.349414,-0.0075 0.477711,0.02683 0.898719,0.240186 0.561675,0.284647 0.656847,0.301201 0.656847,0.114253 0,-0.269104 -0.960898,-0.727744 -1.524699,-0.727744 -0.440351,0 -0.928525,0.192004 -1.242558,0.488713 -0.246541,0.232939 -0.301033,0.329899 -0.330041,0.587259 -0.01911,0.16954 -0.01675,0.379935 0.0052,0.467545 0.09894,0.394194 0.711142,0.762293 1.567364,0.942405 0.97131,0.204322 1.418633,0.520444 1.418633,1.002546 0,0.641548 -0.974729,1.104567 -1.872099,0.889292 -0.185021,-0.04439 -0.505353,-0.182439 -0.711849,-0.306784 -0.394178,-0.237361 -0.522489,-0.271297 -0.593198,-0.156888 -0.0924,0.149504 0.405392,0.518925 0.99431,0.737897 0.514666,0.191365 1.348974,0.142057 1.805537,-0.106708 z"
       id="path15"
       inkscape:connector-curvature="0" />
  </g>
</svg>
